<svg xmlns="http://www.w3.org/2000/svg"
   xmlns:dc="http://purl.org/dc/elements/1.1/"
   xmlns:cc="http://creativecommons.org/ns#"
   xmlns:rdf="http://www.w3.org/1999/02/22-rdf-syntax-ns#"
   xmlns:xlink="http://www.w3.org/1999/xlink"
   width="1162" height="1134" viewBox="-3 -4 1162 1134">
  <metadata>
    <rdf:RDF>
      <cc:Work rdf:about="">
        <dc:format>image/svg+xml</dc:format>
        <dc:type rdf:resource="http://purl.org/dc/dcmitype/StillImage" />
      </cc:Work>
    </rdf:RDF>
  </metadata>
  <path style="fill:#ffffff"
     d="m 647.34375,220.3438 -0.25,0.0625 0,333.125 500.31255,0 -0.2188,-0.96875 -3.375,-1.125 -0.9062,-1.71875 -1.3125,-1.75 0.5937,-1.6875 0.7813,-2.375 1.7812,-1.875 -1.8437,-0.0625 -1.1563,-2.84375 -2,-2.1875 1.0313,-2.21875 -2.5313,-1.4375 -2.4375,-1.59375 0.375,-1.78125 1.875,-1.15625 0.8125,-1.875 -2.2812,-0.40625 -1.7188,-0.625 -2.4375,-0.34375 -1.0312,-1.65625 -1.6875,-1.25 0.031,-1.71875 -1.5313,-2.15625 -0.1875,-1.625 1.8125,-1.59375 0.094,-1.84375 -0.4375,-1.8125 0.75,-1.625 0.8125,-1.6875 -0.7812,-2.90625 -1.0938,-2 -1.0625,-1.6875 1,-1.78125 -0.9062,-1.90625 -1.5625,-1.84375 -1.5313,-1.78125 -0.1562,-1.78125 -0.8438,-1.6875 0.062,-1.71875 -1.7812,-0.625 -0.9375,-1.90625 -1.75,-0.125 -0.4688,-1.65625 -1.625,-0.8125 -1.875,-1 -1.625,-2.90625 -0.9687,-2.0625 -1.4375,-1.78125 -1.7188,-0.9375 -0.031,-2.6875 -1.2187,-162.3125 -1.1875,-2.15625 -1.6563,0.625 -2.0937,0.875 -1.625,1.5 -0.5,-1.90625 -1.75,-0.53125 -1.7188,-1.59375 -1.7812,1.03125 -1.75,0.5 1.9687,0.3125 0.1563,1.78125 -1.875,-0.6875 -1.625,1.1875 -1.6563,-0.5625 0.5625,-1.71875 0.375,-1.6875 -1.7812,0.90625 -1.0313,2.0625 -1.6562,0.15625 0.8437,-1.9375 -1.75,0.5625 -0.9687,2.34375 -1.8438,-0.5 -1.7187,-0.53125 -0.7813,1.6875 -1.7812,0.0625 -1.75,-1.625 0.7187,-1.625 -1.75,0.5625 -1.4687,-2.28125 -1.8438,-0.75 -1.625,-0.96875 0.7813,-1.8125 1.0312,-1.9375 -1.7187,0.5625 -2.0625,1.3125 -1.75,0.1875 -2.0313,0.21875 1.4063,-1.71875 -1.6875,-0.0937 -2.6875,0.125 0.7187,-2.09375 -2.375,0.71875 2.2813,-1.9375 -1.7188,0.21875 -1.0937,-1.875 0.094,1.8125 -1.75,-0.3125 -1.6875,-0.375 -1.5938,1.15625 -1.75,-0.96875 2.0938,-0.1875 0.625,-2.40625 -1.8438,0.4375 -2.25,0.8125 -2.9687,-0.4375 1.0937,-1.875 -2.4375,-0.53125 1.5625,1.75 -1.75,0.34375 -1.5937,-1.8125 0.5312,-1.75 -1.8437,-0.1875 -1.75,-0.90625 0.4375,-0.84375 -2.5,0.875 -0.031,-1.65625 -1.625,-0.75 0.25,1.8125 -1.875,0.15625 -2.25,-1.03125 0.7812,-1.75 -1.75,0.0625 -1.625,-0.84375 -1.5312,-1.8125 0.625,-1.90625 -1.0625,-2.03125 0.2812,2 -2.1562,0.0312 0.3437,-2.3125 -1.8125,-0.71875 -0.7187,-2.625 -1.75,1 -2.0313,-0.5625 -2.9375,-0.65625 -0.5,-1.875 -0.4687,-2.125 -1.6563,-0.34375 -0.3125,2.65625 -1.5937,-1.65625 0.9375,-1.9375 -1.8125,0.90625 -1.875,-1.125 0.9062,-1.625 -1.5937,-0.34375 -2.8438,-1.28125 -3,-1.25 -2.4062,0.9375 -1.5625,1.625 0.1875,2.90625 -1.1875,2 -1.7188,-2.1875 0.3125,1.9375 -1.4375,1.84375 -1.75,-0.9375 -2.0625,0.75 -2.1875,0.8125 -1.875,-0.1875 -1.875,0.4375 -2,-0.625 -2.28125,-0.0312 -1,-1.6875 -1.625,1.0625 -2,-0.125 -0.2812,-2.0938 -2.03125,1.71875 -1.65625,-0.875 0.1875,-2.3125 -0.75,-1.96875 -1.71875,-0.28125 -1.78125,-1 -1.6875,1.5625 -1.4375,2.40625 -1.96875,-0.53125 -2.125,1.625 -1.875,0.90625 -1.71875,-0.53125 -2.21875,-0.625 -1.5,1.65625 0.71875,1.6875 -0.34375,1.65625 -2.15625,-0.15625 -1.71875,-1.125 -1.6875,0.90625 -0.8125,1.9375 -1.625,-0.75 -1.625,-1 -2.46875,-1.71875 -3.25,-1.71875 -1.40625,2.625 -2.3125,0.375 -1.8125,-0.6875 -1.40625,1.875 -1.71875,-1.1875 -1.625,2 -2.09375,-0.6875 -2.53125,-0.28125 0.1875,1.59375 -2.5,-1 -1.90625,0.3125 -0.875,1.9375 -1.75,0.90625 1.6875,-0.15625 -0.25,2.65625 -1.375,2.75 -1.71875,0.84375 -2.75,0.46875 -2.28125,-1.4375 -2.0625,-0.9375 -1.6875,0.96875 -0.75,1.84375 -0.0312,2.1875 -0.5,1.78125 -1.8125,1.40625 -2.03125,0.59375 -0.90625,-1.90625 -0.8125,-1.625 -1.75,-1.84375 -1.59375,-2.0625 -1.65625,-2.25 -1.625,-0.15625 -1.65625,0.5 -2.78125,0.3125 -1.375,-1.625 -0.125,-1.96875 -1.25,-1.8125 -1.65625,0.5 -1.9375,0.0312 -1.75,-1.25 -3.1875,-2.28125 2.78125,-2.40625 0.40625,-2.15625 -3.125,0.125 -3.96875,-1.875 -0.90625,2.96875 -0.0937,2.25 -1.75,2.9375 -1.8125,0.5 -1.84385,0.46875 -2.15625,-0.40625 -0.59375,-1.96875 -1.5,-2.1875 -1.625,-0.375 -2.375,0.4375 -0.15625,1.625 -1.65625,0.34375 -2,-1.9375 -1.125,-3 -0.0625,-1.78125 -0.40625,-2.6875 -2.03125,-2.15625 -2.4375,1.53125 -1.84375,0.9375 -1.9375,-1.34375 -0.0312,1.75 0.90625,2.875 0,1.71875 -1.09375,1.84375 -2.125,2.59375 -2.1875,0.75 -1.8125,-2.21875 -1.8125,2 3.125,0.90625 0.3125,1.625 -3.90625,1.40625 -0.15625,1.71875 0.84375,2.78125 -0.21875,2.15625 -1.75,2.125 -2.34375,0.3125 -1.8125,-0.625 -1.6563,-1.5625 -0.625,-1.65625 -0.65625,-1.625 -0.625,-1.625 -0.9375,-1.71875 0.84375,-3.09375 2.5625,-1 -0.28125,-2.03125 -0.5625,-2.0625 -0.90625,-2.375 -1.71875,-1.34375 -1.8125,-0.0312 -1.625,1.1875 -0.34375,2.40625 -1.5625,2.1875 -1.84375,-1.09375 -2.0625,-1.78125 -0.28125,2.3125 -1.75,0.25 -0.15625,-1.71875 -0.3125,1.9375 -1.6875,3.25 -2.4375,1.09375 -1.78125,0.0937 -1.78125,0 -2.3125,-1.03125 -0.75,-2.21875 0.875,-2.28125 0.0625,-1.65625 -1.125,-1.9375 -3.21875,-1.53125 -3,1.46875 -2.875,0.4375 -1.96875,-0.25 -0.6875,-1.71875 0.1875,-1.8125 0.46875,-1.71875 -1.71875,-1.53125 -2.1875,-1.40625 -3.28125,-1.0625 -1.9375,0.8125 -0.96875,2.15625 -1.5,2 -1.78125,0.75 -1.875,0.6875 -0.4375,1.84375 -1.625,0 0.46875,2 -1.84375,0.96875 -1.6875,1.71875 -2.03125,1.28125 -1.78125,0.75 -2.15625,-0.71875 -1.875,-1.125 -2.125,-1.15625 -2.03125,-0.0625 -1.8125,-1.15625 0.0625,-2.40625 1.75,-0.21875 0.15625,-2.5 -1.65625,-0.5 1.53125,-1.65625 0.34375,-3.34375 -1.65625,-1.59375 -1.6875,0.6875 -3.25,0.59375 -2.4375,-0.28125 -2.40625,-0.6875 -0.59375,-1.78125 -1.46875,-1.65625 1.65625,-0.96875 -2.40625,-1.9375 -0.5625,-2 1.46875,-1.78125 1.0625,-1.96875 -0.96875,-1.9375 -0.53125,-2 -2.4375,1 -2.96875,3.21875 -3.40625,-0.71875 -2.03125,-1.4375 -2.125,0.53125 -2.09375,-0.125 -1.75,-0.40625 -2.21875,-1.75 -3.75,-0.5 -1.65625,1.8125 -1,1.84375 -1.03125,3.03125 -1.65625,0.75 -1.8125,1.28125 -1.96875,0.8125 -2.03125,-0.46875 -1.96875,-1.6875 -1.71875,-2.25 -2.09375,-2.71875 -2.09375,-1.9375 -2.875,-0.53125 -3.4375,-0.1875 -2.5,2.0625 -1.6875,0.3125 -1.8125,0.0625 -2,1.03125 -1.6875,-1.15625 -2.6875,-0.6875 -1.6875,-1.625 -1.9375,0.1875 -2.71875,0.71875 -1.6875,-1.96875 -1.9375,-0.96875 -1.65625,-1.59375 -3.40625,-0.90625 -1.25,-1.6875 -1.875,0.8125 -1.96875,0.5625 -1.75,0.625 -1.65625,-0.90625 -2.28125,-0.1875 -1.6875,0.53125 -1.625,0.0312 -0.34375,-1.71875 -2.03125,1.28125 -3.1875,-0.75 0,-1.625 -0.5625,-2.0625 -0.0312,-1.78125 -0.9375,-1.84375 -0.21875,-1.625 0.34375,-2.125 -0.0937,-2.03125 -1.78125,0.0625 -0.625,-1.65625 -1.8125,-2 -1.71875,-1.28125 0.1875,-1.71875 -1.96885,-1.53125 z m 397.37505,70.96875 0.3125,-0.0937 0.625,-1.625 -0.9375,1.71875 z"
     id="white background"/>
  <path style="fill:none;stroke:#bf0a30;stroke-width:4;stroke-miterlimit:4;stroke-opacity:1;stroke-dasharray:none"
     d="m 647.42996,221.80932 -2.83621,1.52801 -1.40128,333.60759 503.23843,-0.48766 0.7566,-3.89471 -3.375,-1.125 -0.9062,-1.71875 -1.3125,-1.75 0.5937,-1.6875 0.7813,-2.375 1.7812,-1.875 -1.8437,-0.0625 -1.1563,-2.84375 -2,-2.1875 1.0313,-2.21875 -2.5313,-1.4375 -2.4375,-1.59375 0.375,-1.78125 1.875,-1.15625 0.8125,-1.875 -2.2812,-0.40625 -1.7188,-0.625 -2.4375,-0.34375 -1.0312,-1.65625 -1.6875,-1.25 0.031,-1.71875 -1.5313,-2.15625 -0.1875,-1.625 1.8125,-1.59375 0.094,-1.84375 -0.4375,-1.8125 0.75,-1.625 0.8125,-1.6875 -0.7812,-2.90625 -1.0938,-2 -1.0625,-1.6875 1,-1.78125 -0.9062,-1.90625 -1.5625,-1.84375 -1.5313,-1.78125 -0.1562,-1.78125 -0.8438,-1.6875 0.062,-1.71875 -1.7812,-0.625 -0.9375,-1.90625 -1.75,-0.125 -0.4688,-1.65625 -1.625,-0.8125 -1.875,-1 -1.625,-2.90625 -0.9687,-2.0625 -1.4375,-1.78125 -1.7188,-0.9375 -0.031,-2.6875 -1.2187,-162.3125 -1.1875,-2.15625 -1.6563,0.625 -2.0937,0.875 -1.625,1.5 -0.5,-1.90625 -1.75,-0.53125 -1.7188,-1.59375 -1.7812,1.03125 -1.75,0.5 1.9687,0.3125 0.1563,1.78125 -1.875,-0.6875 -1.625,1.1875 -1.6563,-0.5625 0.5625,-1.71875 0.375,-1.6875 -1.7812,0.90625 -1.0313,2.0625 -1.6562,0.15625 0.8437,-1.9375 -1.75,0.5625 -0.9687,2.34375 -1.8438,-0.5 -1.7187,-0.53125 -0.7813,1.6875 -1.7812,0.0625 -1.75,-1.625 0.7187,-1.625 -1.75,0.5625 -1.4687,-2.28125 -1.8438,-0.75 -1.625,-0.96875 0.7813,-1.8125 1.0312,-1.9375 -1.7187,0.5625 -2.0625,1.3125 -1.75,0.1875 -2.0313,0.21875 1.4063,-1.71875 -1.6875,-0.0937 -2.6875,0.125 0.7187,-2.09375 -2.375,0.71875 2.2813,-1.9375 -1.7188,0.21875 -1.0937,-1.875 0.094,1.8125 -1.75,-0.3125 -1.6875,-0.375 -1.5938,1.15625 -1.75,-0.96875 2.0938,-0.1875 0.625,-2.40625 -1.8438,0.4375 -2.25,0.8125 -2.9687,-0.4375 1.0937,-1.875 -2.4375,-0.53125 1.5625,1.75 -1.75,0.34375 -1.5937,-1.8125 0.5312,-1.75 -1.8437,-0.1875 -1.75,-0.90625 0.4375,-0.84375 -2.5,0.875 -0.031,-1.65625 -1.625,-0.75 0.25,1.8125 -1.875,0.15625 -2.25,-1.03125 0.7812,-1.75 -1.75,0.0625 -1.625,-0.84375 -1.5312,-1.8125 0.625,-1.90625 -1.0625,-2.03125 0.2812,2 -2.1562,0.0312 0.3437,-2.3125 -1.8125,-0.71875 -0.7187,-2.625 -1.75,1 -2.0313,-0.5625 -2.9375,-0.65625 -0.5,-1.875 -0.4687,-2.125 -1.6563,-0.34375 -0.3125,2.65625 -1.5937,-1.65625 0.9375,-1.9375 -1.8125,0.90625 -1.875,-1.125 0.9062,-1.625 -1.5937,-0.34375 -2.8438,-1.28125 -3,-1.25 -2.4062,0.9375 -1.5625,1.625 0.1875,2.90625 -1.1875,2 -1.7188,-2.1875 0.3125,1.9375 -1.4375,1.84375 -1.75,-0.9375 -2.0625,0.75 -2.1875,0.8125 -1.875,-0.1875 -1.875,0.4375 -2,-0.625 -2.28125,-0.0312 -1,-1.6875 -1.625,1.0625 -2,-0.125 -0.2812,-2.0938 -2.03125,1.71875 -1.65625,-0.875 0.1875,-2.3125 -0.75,-1.96875 -1.71875,-0.28125 -1.78125,-1 -1.6875,1.5625 -1.4375,2.40625 -1.96875,-0.53125 -2.125,1.625 -1.875,0.90625 -1.71875,-0.53125 -2.21875,-0.625 -1.5,1.65625 0.71875,1.6875 -0.34375,1.65625 -2.15625,-0.15625 -1.71875,-1.125 -1.6875,0.90625 -0.8125,1.9375 -1.625,-0.75 -1.625,-1 -2.46875,-1.71875 -3.25,-1.71875 -1.40625,2.625 -2.3125,0.375 -1.8125,-0.6875 -1.40625,1.875 -1.71875,-1.1875 -1.625,2 -2.09375,-0.6875 -2.53125,-0.28125 0.1875,1.59375 -2.5,-1 -1.90625,0.3125 -0.875,1.9375 -1.75,0.90625 1.6875,-0.15625 -0.25,2.65625 -1.375,2.75 -1.71875,0.84375 -2.75,0.46875 -2.28125,-1.4375 -2.0625,-0.9375 -1.6875,0.96875 -0.75,1.84375 -0.0312,2.1875 -0.5,1.78125 -1.8125,1.40625 -2.03125,0.59375 -0.90625,-1.90625 -0.8125,-1.625 -1.75,-1.84375 -1.59375,-2.0625 -1.65625,-2.25 -1.625,-0.15625 -1.65625,0.5 -2.78125,0.3125 -1.375,-1.625 -0.125,-1.96875 -1.25,-1.8125 -1.65625,0.5 -1.9375,0.0312 -1.75,-1.25 -3.1875,-2.28125 2.78125,-2.40625 0.40625,-2.15625 -3.125,0.125 -3.96875,-1.875 -0.90625,2.96875 -0.0937,2.25 -1.75,2.9375 -1.8125,0.5 -1.84385,0.46875 -2.15625,-0.40625 -0.59375,-1.96875 -1.5,-2.1875 -1.625,-0.375 -2.375,0.4375 -0.15625,1.625 -1.65625,0.34375 -2,-1.9375 -1.125,-3 -0.0625,-1.78125 -0.40625,-2.6875 -2.03125,-2.15625 -2.4375,1.53125 -1.84375,0.9375 -1.9375,-1.34375 -0.0312,1.75 0.90625,2.875 0,1.71875 -1.09375,1.84375 -2.125,2.59375 -2.1875,0.75 -1.8125,-2.21875 -1.8125,2 3.125,0.90625 0.3125,1.625 -3.90625,1.40625 -0.15625,1.71875 0.84375,2.78125 -0.21875,2.15625 -1.75,2.125 -2.34375,0.3125 -1.8125,-0.625 -1.6563,-1.5625 -0.625,-1.65625 -0.65625,-1.625 -0.625,-1.625 -0.9375,-1.71875 0.84375,-3.09375 2.5625,-1 -0.28125,-2.03125 -0.5625,-2.0625 -0.90625,-2.375 -1.71875,-1.34375 -1.8125,-0.0312 -1.625,1.1875 -0.34375,2.40625 -1.5625,2.1875 -1.84375,-1.09375 -2.0625,-1.78125 -0.28125,2.3125 -1.75,0.25 -0.15625,-1.71875 -0.3125,1.9375 -1.6875,3.25 -2.4375,1.09375 -1.78125,0.0937 -1.78125,0 -2.3125,-1.03125 -0.75,-2.21875 0.875,-2.28125 0.0625,-1.65625 -1.125,-1.9375 -3.21875,-1.53125 -3,1.46875 -2.875,0.4375 -1.96875,-0.25 -0.6875,-1.71875 0.1875,-1.8125 0.46875,-1.71875 -1.71875,-1.53125 -2.1875,-1.40625 -3.28125,-1.0625 -1.9375,0.8125 -0.96875,2.15625 -1.5,2 -1.78125,0.75 -1.875,0.6875 -0.4375,1.84375 -1.625,0 0.46875,2 -1.84375,0.96875 -1.6875,1.71875 -2.03125,1.28125 -1.78125,0.75 -2.15625,-0.71875 -1.875,-1.125 -2.125,-1.15625 -2.03125,-0.0625 -1.8125,-1.15625 0.0625,-2.40625 1.75,-0.21875 0.15625,-2.5 -1.65625,-0.5 1.53125,-1.65625 0.34375,-3.34375 -1.65625,-1.59375 -1.6875,0.6875 -3.25,0.59375 -2.4375,-0.28125 -2.40625,-0.6875 -0.59375,-1.78125 -1.46875,-1.65625 1.65625,-0.96875 -2.40625,-1.9375 -0.5625,-2 1.46875,-1.78125 1.0625,-1.96875 -0.96875,-1.9375 -0.53125,-2 -2.4375,1 -2.96875,3.21875 -3.40625,-0.71875 -2.03125,-1.4375 -2.125,0.53125 -2.09375,-0.125 -1.75,-0.40625 -2.21875,-1.75 -3.75,-0.5 -1.65625,1.8125 -1,1.84375 -1.03125,3.03125 -1.65625,0.75 -1.8125,1.28125 -1.96875,0.8125 -2.03125,-0.46875 -1.96875,-1.6875 -1.71875,-2.25 -2.09375,-2.71875 -2.09375,-1.9375 -2.875,-0.53125 -3.4375,-0.1875 -2.5,2.0625 -1.6875,0.3125 -1.8125,0.0625 -2,1.03125 -1.6875,-1.15625 -2.6875,-0.6875 -1.6875,-1.625 -1.9375,0.1875 -2.71875,0.71875 -1.6875,-1.96875 -1.9375,-0.96875 -1.65625,-1.59375 -3.40625,-0.90625 -1.25,-1.6875 -1.875,0.8125 -1.96875,0.5625 -1.75,0.625 -1.65625,-0.90625 -2.28125,-0.1875 -1.6875,0.53125 -1.625,0.0312 -0.34375,-1.71875 -2.03125,1.28125 -3.1875,-0.75 0,-1.625 -0.5625,-2.0625 -0.0312,-1.78125 -0.9375,-1.84375 -0.21875,-1.625 0.34375,-2.125 -0.0937,-2.03125 -1.78125,0.0625 -0.625,-1.65625 -1.8125,-2 -1.71875,-1.28125 0.1875,-1.71875 z m 397.28884,69.50323 0.3125,-0.0937 0.625,-1.625 z"
     id="red-outline"/>
  <path style="fill:#bf0a30"
     d="m 647.09375,553.5313 0,464.5625 0.1875,0 2.34375,2.3437 0.5625,2.9063 1.75,2.875 0.21875,4.5 2.71875,2.2188 -0.0937,3.25 0.84375,3.9687 1.96875,3.8125 0.9375,6.375 0.0625,2.5313 2.03125,0.875 2.21875,1.1875 1.21875,1.7187 0.8125,1.9688 -0.21875,1.9375 -0.375,1.625 -1,1.625 1.21875,1.625 1.5625,2.1875 2.40625,-0.5 2,-1.2188 2.5,2.0313 2.59375,-0.8125 1.71875,0.7187 -0.125,1.8125 1.84375,0.4688 1,-2.0313 1.125,2.1563 1.9375,1.5312 1.65625,-0.5312 2.3125,0.375 1.71875,-1.2813 1.8125,0.375 0.6875,1.9063 0.5625,1.8125 1.625,0.75 1.90625,-0.5313 0.96875,1.7188 -0.34375,2.0625 2.0625,0.625 1.6875,0.7812 -1.71875,0.9063 1.65625,0.6562 2,0.9688 0.125,1.625 1.9375,0.5937 1.96875,-1.7187 2.09375,-0.125 1.84375,-0.4688 1.78125,1.7188 0.71875,1.625 1.28125,-1.8438 0.8125,1.9063 1.8125,-0.1875 0.96875,1.9687 2.1875,0.7188 -0.21875,-1.8438 1.78125,-0.7187 1.84375,0.7187 -0.34375,1.9375 1.6875,1 2,2.0625 1.9375,1.625 1.96875,-0.2812 1.75,0.6562 0.25,1.625 1.28125,2.0625 2,1.4063 0.65625,-1.6563 2.1875,0.3438 -1.8125,1.5937 1.71875,1.125 1.59375,2.0625 3.15625,0.3125 1.8125,1.6563 1.78125,-1.875 1.125,1.8437 1.65625,-0.125 1.84375,-1 2.21875,0.625 1.71875,-0.1562 -0.4375,1.9062 1.65625,-0.4687 1.9375,0.5312 0.5625,-2.1875 1.8125,0.5938 1.625,-0.2813 1.625,0.094 2.125,-0.4062 1.75,-0.1563 1.75,0.75 2.15625,-1.0625 2.21875,-0.375 1.0625,1.9063 2.09375,-0.4063 1.625,-0.25 1.625,0.9063 0.5625,1.6562 1.625,-1.0625 0.40625,1.875 2.15625,-0.625 2.6875,-0.4062 1.65625,0.9687 2.0625,-1.1875 -0.5,1.9688 2.40625,-0.5313 -0.53125,1.7813 1.75,0.1875 -0.65625,1.6562 1.6875,1.25 1.875,1.7813 1.71875,0.8125 -0.75,1.6875 2.90625,0.1562 1.75,1.75 0.25,1.8125 0.46875,1.7188 2.09375,-1.3438 0.46875,1.9375 1.65625,0.4375 1.625,-0.7812 0.96875,1.75 0.75,1.875 2.46875,-0.5313 1.28125,1.8438 1.78125,-0.2813 -0.21875,-1.75 1.46875,-1.6875 -0.625,-1.9375 -0.78125,-1.6562 1.71875,-1.375 1.9375,-0.6875 1.625,-0.5938 1.65625,-0.1875 1.71875,-0.2187 0,-1.75 2.78125,0.2812 1.75,-1.0312 1.75,0.094 1.625,-0.031 1.75,-0.1875 1.75,0.5 0.0625,-1.625 4.875,-0.3125 -0.25,-7.3125 0.4062,-2.4375 -0.4375,-2.3437 -1.21875,-1.7188 -0.21875,-4.3125 -0.59375,-5.5625 -0.6875,-5.3125 -2.75,-13.4062 -2.46875,-10.625 -2.59375,-10.6563 -0.9375,-2.2187 -2.375,-6.7813 -2.75,-10.75 -1.5625,-7.5 -1.1875,-8.3125 -0.59375,-7.5313 -0.21875,-2.7187 0,-4.3125 0.3125,-6.21875 0.53125,-6.3125 0.375,-2.8125 1.125,-5.71875 0.71875,-2.875 2.78125,-10.34375 0.59375,-1.78125 4.4375,-11.40625 3.0625,-7.1875 3.5,-7.625 6.625,-11.59375 3.625,-3.875 2.15625,-1.78125 2.1875,-7.5625 1.84375,-2.75 2.625,-3.46875 2.96875,-3.78125 2.71875,-3.21875 8.625,-8.375 9.3125,-8 3.90625,-2.90625 5.75,-4.03125 9.28125,-5.03125 2.65625,-1.15625 1.78125,-1.1875 2.6875,-3.71875 0.59375,-1.9375 1.53125,-1.96875 2.34375,-0.5625 2.375,-2.09375 0.78125,-2.09375 2,-1.4375 4.6875,-3.21875 9.375,-5.0625 6.65625,-3.40625 11.03125,-5.34375 8.5625,-4.5 2.4375,-1.375 19.0625,-11.8125 3.53125,-1.59375 6.5,-4.28125 1.65625,-0.0312 2.0625,-0.4375 2.15625,-0.8125 2.75,-1.75 1.0625,-1.75 1.68745,-2.1875 3.3438,-2.21875 2.25,-1.875 1.8437,-1.71875 2.25,-2.34375 4.8438,-5.71875 1.7187,-1.25 1.5313,-3.5 0.2187,-2.15625 7.5938,-3.8125 3.2188,-2.1875 4.5625,-3.625 6.3437,-4.125 5.9375,-3.5 2.7813,-2.96875 2.4375,-2.40625 1.8437,0.5625 2.3125,-0.40625 2.0938,-2.03125 1.5937,-3.6875 -0.375,-2.4375 -1.9062,-2.59375 2.2187,-1.5625 11.0625,-5.78125 7.0625,-3.3125 4.3125,-1.75 21.5938,-10.09375 8.0625,-3.09375 11.25,0 2.7187,0.375 1.5,1.71875 1.9063,0.875 1.9375,0.0312 -1.25,-6.65625 -0.7813,-3.21875 -3.2187,-5.03125 -1.7188,-1.8125 -0.4375,-1.78125 -2.4687,-1.90625 -0.125,-2.09375 1.25,-1.875 2.4375,-1.9375 2.7187,-1.96875 2.1875,-3.1875 1.1563,-2.53125 0.3125,-1.78125 0.9062,-2.875 1.3125,-2.78125 1.875,-1.5625 2.3125,-1.90625 0.3125,-1.65625 3.0313,-3.0625 -1.8438,-1.71875 0.75,-1.90625 1.2813,-2.375 0.6875,-2 -0.875,-2.03125 -0.6563,-1.96875 -0.375,-1.875 -0.5312,-1.90625 0.8125,-1.6875 0.2187,-1.75 0.094,-1.75 0.2813,-1.71875 -1.25,-1.625 -1.9375,-1.15625 -1.3438,-1.96875 -0.2812,-1.75 0.75,-1.84375 -0.375,-2 0.8437,-1.875 1.5,-1.78125 0.2188,-1.8125 1.9375,-0.40625 0.1875,-1.625 -0.9375,-2.125 0.2187,-1.71875 -0.1562,-1.84375 -0.5938,-1.8125 -1.7187,-1.75 0.5937,-1.625 0.3125,-2.25 2.125,-1.53125 1.6563,-0.375 0.1562,-1.71875 -0.1562,-1.78125 0.1875,-1.6875 1.0937,-1.78125 1.6563,-1.25 1.7812,-0.84375 0.9688,-1.71875 0.3437,-1.9375 0.6563,-1.875 0.062,-1.71875 0.6875,-1.65625 1.5312,-1.75 0.75,-2.40625 0.9375,-1.6875 0.9063,-1.875 -0.3125,-1.78125 -0.625,-1.75 -0.75,-2 1.6562,-1.625 0.9375,-1.8125 1.5313,-1.84375 -0.4063,-1.8125 -1.6875,-1.3125 -1.7187,-0.96875 -0.3438,-1.65625 0.1563,-1.875 1.9375,-0.0625 2.4062,-1.03125 0.1875,-2.3125 -0.094,-1.625 -1.0312,-1.8125 -1.7188,-0.46875 -1,-1.65625 1.5625,-1.75 0.7188,-1.625 -0.7188,-1.78125 0.6875,-2.125 0.1563,-0.4375 -4.4063,0 -0.25,0.1875 -0.125,-0.1875 -1.5312,-1.59375 0.4062,-2.96875 0.625,-1.96875 -1.75,-0.78125 0.031,-1.9375 -0.1874,-0.71875 -500.31255,0 z"
     id="redfill"/>
  <path style="fill:#002868"
     d="m 398.25,1e-4 -81.03125,0.0312 0.0937,52.875 -0.125,18.46875 0.0937,3.53125 -0.1875,70.4375 0.0625,11.71875 -0.125,74.25 0.0625,30.75 -1.875,107.8125 0.0312,105.625 -192.59375,0.0312 -77.0625,-0.25 -43.5311,0.81255 -1.65625,1.90625 1.6875,1.28125 0.34375,1.65625 -0.78125,1.8125 1.09375,1.25 -1.9375,1.09375 -0.8125,1.78125 0.71875,1.9375 0.78125,1.9375 2.125,1.75 1.21875,1.84375 2.21875,1.15625 2.375,1.34375 0.65625,1.78125 1.625,2.15625 1.8125,1.34375 1.90625,-1.125 2.5625,0.25 2.03125,0.625 3.3125,2.375 0.5,1.65625 2,1.6875 1.34375,3.5 2.71875,4.375 0.59375,1.96875 0.71875,1.71875 0.6875,2.65625 3,2.15625 1.9375,4.3125 0.53125,2.25 1.625,1.8125 2.15625,0.78125 1.65625,1.875 2.1875,1.28125 2.0625,0.3125 2.9375,2.59375 6.21875,0.5625 4.5,2.90625 0.53125,2.6875 1.40625,2.8125 2.5,0.625 1.09375,1.78125 1.90625,0.125 1.65625,2.53125 1.25,1.8125 1.5625,1.875 2.125,2.9375 1.28125,2.0625 1.46875,1.96875 1.875,-0.0625 2.78125,2.9375 5.625,2.5 1.71875,1.5625 2.53125,2.53125 1.15625,1.84375 0.5,2.25 0.9375,2.21875 0.46875,1.84375 1.8125,1.34375 2,1.21875 1.59375,0.5625 1.375,2.65625 1.90625,1.75 1.78125,1.34375 1.65625,1.375 2.25,1.15625 0.46875,1.90625 -0.59375,1.75 1.9375,0.4375 1.75,0.5 2,1.3125 1.6875,0.59375 0.8125,1.75 1.71875,-1.3125 1.1875,1.75 1.65625,1.34375 1.96875,-0.875 1.71875,-0.34375 0.75,2.0625 1.8125,0.1875 0.84375,1.75 1.65625,0.125 0.5,1.625 1.96875,0.125 1.65625,0.71875 0.65625,1.8125 1.40625,1.75 1.6875,0.65625 0.71875,1.71875 1.6875,-0.15625 1.75,0.78125 1.6875,0.0625 1.375,2.40625 0.21875,1.625 0.3125,2.1875 1.8125,1.1875 1.71875,0.84375 1.625,0.4375 1.21875,1.71875 1.0625,2.125 0.71875,1.625 0.625,1.90625 0.75,1.875 0.46875,1.75 -0.21875,1.65625 -0.0312,2.0625 0.8125,2.0625 0.3125,1.625 -0.0312,1.625 0.3125,2.5 2.03125,1.3125 1.6875,0.65625 -1,1.71875 1.3125,1.8125 1.6875,1.21875 0.8125,1.6875 1.59375,0.5625 0.28125,2.03125 0.65625,2 2.34375,0.96875 1.59375,1.9375 0.3125,2.3125 0.5625,1.84375 0.71875,2.03125 0.0312,1.75 -0.1875,1.96875 -0.53125,1.625 0.34375,1.78125 0.40625,2.25 -0.34375,1.8125 -1.09375,1.625 0.25,2.03125 0.65625,1.75 0.25,1.65625 0.40625,1.71875 0.0312,1.75 1.09375,1.65625 -0.71875,1.8125 0.125,1.75 1.84375,2.125 1.09375,1.875 1.4375,2 1.4375,1.9375 -0.5,1.6875 1.625,1.46875 0.90625,1.9375 1.40625,1.71875 0.75,1.75 0.5625,1.90625 0.9375,1.75 0.34375,1.78125 0.125,1.84375 0,1.65625 1.625,1.34375 0.78125,1.625 0.84375,1.625 1.71875,0.65625 1.6875,1.25 1.4375,1.65625 5.125,4.625 1.09375,1.71875 1.6875,0.78125 2.78125,1.40625 1.6875,-0.0625 1.71875,0.40625 2.78125,1.34375 2.0625,0.96875 0.5625,2 1.90625,-0.21875 -0.28125,1.65625 0.1875,1.71875 2.5625,2.34375 0.65625,1.71875 1.5,1.71875 1.65625,1.1875 1.78125,1.28125 1.75,0.9375 1.9375,1.75 1.6875,1.25 1.6875,1.4375 1.875,0.8125 2.15625,0.875 2.375,0.5625 1.84375,0.34375 2.1875,1.09375 1.71875,-0.28125 1.6875,0.25 2.28125,0.375 1.65625,0.9375 1.9375,-0.125 1.25,1.625 1.84375,0.6875 -0.1875,1.6875 0.3125,1.65625 1.9375,-0.5 1.09375,1.6875 1.21875,1.71875 1.875,0.96875 1.65625,0.53125 1.71875,0.53125 1.5,1.65625 1.625,-0.0625 1.90625,-0.71875 1.75,1.625 2.34375,-0.4375 1.84375,0.96875 1.75,0.84375 1.0625,1.65625 1.78125,1.75 2,2.0625 -0.125,1.96875 1.8125,-0.25 1.5,1.78125 1.59375,1.5 1.8125,0.5625 1.78125,0.9375 1.875,0.0937 0.5,-1.84375 1.8125,0.8125 0.0625,1.71875 1.75,-0.6875 -0.1875,2.0625 1.90625,0.21875 0.6875,2.5625 1.0625,-2.03125 2.75,1.21875 1.875,-0.3125 2.03125,0.375 2.4375,1.25 1.71875,-0.5625 2.4375,-0.71875 -0.0312,-1.6875 1.6875,-2.75 -0.625,-1.90625 1.71875,-1.65625 0.75,-1.6875 1.125,-1.625 2.21875,-0.59375 0.3125,-1.8125 1.84375,-1.71875 0.59375,-1.90625 1.0625,-1.625 1.3125,-2.3125 2.09375,0.71875 1.65625,-0.96875 1.71875,-1.15625 1.71875,-1.09375 1.8125,-0.4375 0.90625,-1.78125 -1.6875,-1.625 -1.65625,-1.5 0.3125,-1.6875 1.3125,-1.8437 -0.4375,-1.625 0.71875,-1.8125 1.0625,-2.78125 2.40625,-1.3125 1.09375,-2.46875 1.71875,-1.5 -1.1875,-1.625 -0.34375,-1.75 0.625,-1.90625 0.65625,-1.9375 1.375,-1.65625 -0.59375,-1.84375 0.90625,-2.71875 1.65625,-1.5 0.0625,-1.84375 1.375,-1.96875 -0.28125,-1.90625 1.65625,0.53125 0.6875,-1.6875 -0.28125,-2.59375 1.6875,-1.90625 1.25,-1.65625 0.78125,-2.03125 0.84375,-2.21875 0.71875,-2.21875 1.90625,-0.78125 2.71875,0.0312 1.71875,-1.31245 1.8125,-0.15625 2.34375,-1.9375 0.71875,2 1.78125,-0.65625 1.84375,-1.125 -0.375,-1.90625 1.75,0.21875 2.46875,0.0625 1.96875,0.34375 1.90625,0.46875 1.875,0.84375 1.71875,-0.6875 0.6875,-1.9375 0.34375,-1.875 0.96875,-2.9375 1.0625,-2.28125 1.625,-0.59375 1.71875,-1.53125 2.5625,1.375 1.625,-0.34375 1.625,0.34375 1.28125,1.6875 2.21875,0.53125 2.125,-0.28125 0.21875,2.0625 2.15625,1.5 1.75,1.125 1.75,0.96875 1.84375,0.125 1.90625,0.5 2.0625,0.125 1.875,-1.75 1.96875,0.0312 1.65625,0.5 1.8125,-1.6875 1.125,1.78125 1.625,-0.375 0.5625,1.78125 1.5625,-1.625 3.15625,0.4375 1.75,-1.40625 1.59375,1.46875 1.65625,0.1875 -0.59375,-1.65625 1.6875,0.84375 0.625,2.09375 2.25,-1 2.1875,1.1875 1.8125,0.53125 1.71875,1.15625 2.40625,0.0937 1.75,-1.0625 1.5,1.75 1.5625,-1.75 2.0625,-0.375 2.75,0.0937 0.40625,-2.6561 2.28125,-1.28125 0.34375,2.40625 0.65625,3 2.40625,-0.53125 2.125,-2.0625 2.03125,-0.40625 0.0625,1.6875 1.5,2.21875 3.46875,-1.1875 -1.46875,1.65625 1.625,1.3125 0,2.125 2.21875,2.1875 0.40625,2.375 1.875,0.90625 3.8125,1.25 0.125,1.65625 -1.0625,3.4375 0.125,1.71875 1.84375,1.53125 1.15625,-2.03125 0.0312,-1.6875 0.75,-2.46875 1.625,0.625 -0.15625,2.09375 0.15625,5.03125 -0.9375,2.09375 0.5625,1.75 2.40625,-0.21875 3.0625,0.21875 1.84375,1.71875 1.75,2.84375 1.9375,-0.125 2.3125,0.8125 2.34375,0.6875 1.78125,1.75 1.1875,1.875 0.40625,2 1.71875,2.09375 0.4375,1.78125 1.65625,1.125 2.09375,1.28125 2,0.4375 1.8125,2.15625 2.09375,1.5625 2,1.375 1.53125,2.4375 2.25,1.34375 2,1 1.65625,0.75 1.0625,1.96875 0.96875,1.84375 0.65625,1.625 -0.78125,2.3125 1.4375,1.71875 1.90625,1.90625 2.46875,2.03125 2.28125,1 1.1875,1.9375 0.5625,1.875 0.0937,2.78125 0.25,1.75 0.5625,1.6875 0.40625,2.03125 0.0625,2 0.0312,1.75 -0.28125,1.8125 1.09375,1.6875 0.21875,1.6875 1.96875,1.03125 1.90625,1.3125 0.15625,1.78125 1.5625,2.5625 0.21875,2.34375 2.125,1.0625 1.15625,1.78125 -0.28125,2.28125 0.28125,1.9375 1.65625,0.96875 0.6875,1.90625 0,1.625 -0.3125,2.75 1.25,3.40625 0.0625,0.0312 1.84375,1.15625 2.53125,1.0625 -0.25,2.125 1.625,2.1875 2.875,2.1875 -1.21875,2.625 0.96875,2.09375 1.0625,1.71875 2.28125,0.65625 2.09375,0.71875 -0.5,1.625 -2.0625,1.1875 1.46875,1.6875 1.15625,1.71875 0.0625,1.65625 -1.0936,2.5938 0.6875,1.875 2.15625,2.90625 1.1875,2.4375 1.34375,1.84375 0.0937,1.65625 0.375,3.21875 1.375,2.15625 1.875,1.71875 2.53125,0.75 0.3125,2.25 0.53125,1.625 1.96875,0.46875 2.21875,1.875 1.6875,0 1.90625,1.3125 3.125,1.15625 1.09375,2.53125 1.4375,2.0625 0.8125,2.34375 2.15625,1.0625 0.5,1.65625 0.28125,1.71875 0.59375,1.96875 0.84375,1.78125 1.6875,1.28125 2.40625,0.65625 1.5625,1.65625 -0.59375,1.9375 1.15625,2.3125 2.28125,1.59375 0.53125,2.03125 -0.90625,1.875 0.9375,2.03125 1.5625,1.90625 0.1875,2.65625 0.34375,1.9375 2.21875,1.65625 1.03125,1.6875 1.75,-1.15625 0.65625,1.59375 0.8125,2.4375 2.28125,0.375 1.125,2.125 2.21875,2.8125 0.96875,2.03125 1.96875,1.125 1.78125,-0.375 1.84375,1.1875 -0.0625,1.78125 1.75,0.4375 2.03125,-1.15625 1.9375,-0.0937 1.4375,2.125 -0.0937,1.71875 2.09375,-1.28125 1.65625,2.40625 1.71875,2.03125 -0.1875,2.03125 -0.3125,1.9375 -0.28125,1.71875 -0.0625,2.3125 2.09375,-0.375 1.84375,1.25 -0.375,2.625 -0.875,2.625 0.71875,2.875 -0.46875,2.0625 -0.5625,2 -0.75,2 -0.125,2.15625 -1.96875,1.0625 0.90625,2.09375 1.78125,-0.21875 1.1875,1.71875 0.5625,3.15625 2.53125,-0.4375 0.96875,2.875 -0.125,1.90625 0.875,1.78125 0.5625,2.71875 -1,2.3125 0.5625,1.75 -0.15625,1.9375 0.25,2.59375 -0.375,1.71875 -1.40625,2.5625 0.59375,2.2188 0.4375,1.9687 2.0625,-0.2812 1.03125,2.0937 2.40625,2.0938 -1.53125,1.7812 0.5,1.75 2.375,1.625 2.09375,0.6563 1.375,1.6875 0.4375,4.3125 1.71875,0.062 0,-797.68755 -1.96875,0.625 -1.8125,-2.25 -1.65625,-2.71875 -1.9375,-0.125 -1.0625,2.65625 0.3125,1.9375 -0.53125,1.65625 -1.625,2.125 -2.125,0.6875 -1.71875,-0.9375 -1.40625,-1.625 -2.25,-1.4375 -1.75,-0.5625 -1.96875,0.125 -1.84375,-0.4375 -1.9375,1.03125 -0.0312,1.71875 -1.34375,1.75 -2.125,0.125 -2.125,-0.9375 -2.03125,0.5 -2.09375,-0.0625 -1.75,-1.71875 -1.0625,-1.6875 -2.40625,-1.125 -1.625,-2.125 -1.84375,-1.34375 -1.9375,-2.8125 -1.53125,-2.0625 -1.78125,-1.21875 -1.375,-1.6875 -1.4063,-2.0313 -1.65625,-1.21875 -2.71875,-1.9375 -1.71875,-0.1875 -1.5625,1.71875 -2.53125,0.1875 0,-204.6875 -43.59375,0 0,-0.25 -42.4375,0 -10.75,0.0937 L 398.25,0 z"
     id="bluefill"/>
  <g transform="translate(471.79338,553.5313)scale(135,135)" style="fill:#ffffff">
    <g id="cone">
      <polygon id="triangle" points="0,1 0.5,1 0,0" transform="translate(0,-1)rotate(18)"/>
      <use xlink:href="#triangle" transform="scale(-1,1)"/>
    </g>
    <use xlink:href="#cone" transform="rotate(72)"/>
    <use xlink:href="#cone" transform="rotate(144)"/>
    <use xlink:href="#cone" transform="rotate(216)"/>
    <use xlink:href="#cone" transform="rotate(288)"/>
  </g>
</svg>
